<mxfile host="app.diagrams.net" modified="2021-10-18T17:25:10.209Z" agent="5.0 (Windows NT 10.0; WOW64) AppleWebKit/537.36 (KHTML, like Gecko) Chrome/94.0.4606.81 Safari/537.36" etag="vwH_zeAtkgkRF2SQ5vvz" version="15.5.5" type="github">
  <diagram name="Page-1" id="13e1069c-82ec-6db2-03f1-153e76fe0fe0">
    <mxGraphModel dx="981" dy="1398" grid="1" gridSize="10" guides="1" tooltips="1" connect="1" arrows="1" fold="1" page="1" pageScale="1" pageWidth="1100" pageHeight="850" background="none" math="0" shadow="0">
      <root>
        <mxCell id="0" />
        <mxCell id="1" parent="0" />
        <mxCell id="3211l-Er1AWYU2jjhMqr-1" value="alt" style="shape=umlFrame;whiteSpace=wrap;html=1;" parent="1" vertex="1">
          <mxGeometry x="140" y="190" width="540" height="210" as="geometry" />
        </mxCell>
        <mxCell id="wc8MHf9N2YYuKddE2Fxc-26" value="&lt;u&gt;m: megjegyzés&lt;br&gt;adatkezelő&lt;/u&gt;" style="shape=umlLifeline;perimeter=lifelinePerimeter;whiteSpace=wrap;html=1;container=1;collapsible=0;recursiveResize=0;outlineConnect=0;" parent="1" vertex="1">
          <mxGeometry x="430" y="-10" width="100" height="420" as="geometry" />
        </mxCell>
        <mxCell id="v-LXQGswzC1OJa_wjFEn-2" value="" style="html=1;points=[];perimeter=orthogonalPerimeter;" parent="wc8MHf9N2YYuKddE2Fxc-26" vertex="1">
          <mxGeometry x="45" y="294" width="10" height="30" as="geometry" />
        </mxCell>
        <mxCell id="v-LXQGswzC1OJa_wjFEn-1" value="&lt;u&gt;f: felhasználói&lt;br&gt;adatkezelő&lt;/u&gt;" style="shape=umlLifeline;perimeter=lifelinePerimeter;whiteSpace=wrap;html=1;container=1;collapsible=0;recursiveResize=0;outlineConnect=0;" parent="1" vertex="1">
          <mxGeometry x="550" y="-10" width="100" height="420" as="geometry" />
        </mxCell>
        <mxCell id="wc8MHf9N2YYuKddE2Fxc-27" value="" style="html=1;points=[];perimeter=orthogonalPerimeter;" parent="v-LXQGswzC1OJa_wjFEn-1" vertex="1">
          <mxGeometry x="45" y="70" width="10" height="30" as="geometry" />
        </mxCell>
        <mxCell id="v-LXQGswzC1OJa_wjFEn-6" style="edgeStyle=orthogonalEdgeStyle;rounded=0;orthogonalLoop=1;jettySize=auto;html=1;dashed=1;" parent="1" source="wc8MHf9N2YYuKddE2Fxc-27" edge="1">
          <mxGeometry relative="1" as="geometry">
            <mxPoint x="290" y="90" as="targetPoint" />
            <Array as="points">
              <mxPoint x="290" y="90" />
            </Array>
          </mxGeometry>
        </mxCell>
        <mxCell id="v-LXQGswzC1OJa_wjFEn-10" value="Bejelentkezett felhasználó / Adminisztrátor" style="edgeLabel;html=1;align=center;verticalAlign=middle;resizable=0;points=[];" parent="v-LXQGswzC1OJa_wjFEn-6" vertex="1" connectable="0">
          <mxGeometry x="-0.1036" y="1" relative="1" as="geometry">
            <mxPoint as="offset" />
          </mxGeometry>
        </mxCell>
        <mxCell id="wc8MHf9N2YYuKddE2Fxc-1" value="&lt;u&gt;c: CAFF&lt;br&gt;adatkezelő&lt;br&gt;&lt;/u&gt;" style="shape=umlLifeline;perimeter=lifelinePerimeter;whiteSpace=wrap;html=1;container=1;collapsible=0;recursiveResize=0;outlineConnect=0;" parent="1" vertex="1">
          <mxGeometry x="236" y="-10" width="95" height="430" as="geometry" />
        </mxCell>
        <mxCell id="wc8MHf9N2YYuKddE2Fxc-4" value="" style="html=1;points=[];perimeter=orthogonalPerimeter;" parent="wc8MHf9N2YYuKddE2Fxc-1" vertex="1">
          <mxGeometry x="45" y="60" width="10" height="360" as="geometry" />
        </mxCell>
        <mxCell id="wc8MHf9N2YYuKddE2Fxc-5" value="CAFF keresés(címke)" style="html=1;verticalAlign=bottom;endArrow=block;entryX=0;entryY=0;rounded=0;" parent="wc8MHf9N2YYuKddE2Fxc-1" target="wc8MHf9N2YYuKddE2Fxc-4" edge="1">
          <mxGeometry x="-0.116" y="-10" relative="1" as="geometry">
            <mxPoint x="-136" y="60" as="sourcePoint" />
            <mxPoint as="offset" />
          </mxGeometry>
        </mxCell>
        <mxCell id="wc8MHf9N2YYuKddE2Fxc-35" value="CAFF eredmény" style="edgeStyle=orthogonalEdgeStyle;html=1;align=left;spacingLeft=2;endArrow=open;rounded=0;entryX=1;entryY=0.192;entryDx=0;entryDy=0;entryPerimeter=0;dashed=1;endFill=0;" parent="wc8MHf9N2YYuKddE2Fxc-1" edge="1">
          <mxGeometry relative="1" as="geometry">
            <mxPoint x="55" y="170" as="sourcePoint" />
            <Array as="points">
              <mxPoint x="85" y="170" />
              <mxPoint x="85" y="190" />
            </Array>
            <mxPoint x="55" y="190.0400000000002" as="targetPoint" />
          </mxGeometry>
        </mxCell>
        <mxCell id="wc8MHf9N2YYuKddE2Fxc-33" value="CAFF szűrés (címke)" style="edgeStyle=orthogonalEdgeStyle;html=1;align=left;spacingLeft=2;endArrow=block;rounded=0;" parent="wc8MHf9N2YYuKddE2Fxc-1" edge="1">
          <mxGeometry x="0.0423" relative="1" as="geometry">
            <mxPoint x="55" y="133" as="sourcePoint" />
            <Array as="points">
              <mxPoint x="85" y="133" />
              <mxPoint x="85" y="150" />
              <mxPoint x="61" y="150" />
            </Array>
            <mxPoint x="61" y="150" as="targetPoint" />
            <mxPoint as="offset" />
          </mxGeometry>
        </mxCell>
        <mxCell id="v-LXQGswzC1OJa_wjFEn-7" value="" style="html=1;points=[];perimeter=orthogonalPerimeter;" parent="wc8MHf9N2YYuKddE2Fxc-1" vertex="1">
          <mxGeometry x="50" y="352" width="10" height="20" as="geometry" />
        </mxCell>
        <mxCell id="v-LXQGswzC1OJa_wjFEn-14" value="Adatok összefésülése(CAFF eredmény, megjegyzések)" style="edgeStyle=orthogonalEdgeStyle;html=1;align=left;spacingLeft=2;endArrow=block;rounded=0;" parent="wc8MHf9N2YYuKddE2Fxc-1" edge="1">
          <mxGeometry x="0.0423" relative="1" as="geometry">
            <mxPoint x="55" y="334.97" as="sourcePoint" />
            <Array as="points">
              <mxPoint x="85" y="334.97" />
              <mxPoint x="85" y="351.97" />
              <mxPoint x="61" y="351.97" />
            </Array>
            <mxPoint x="61" y="351.97" as="targetPoint" />
            <mxPoint as="offset" />
          </mxGeometry>
        </mxCell>
        <mxCell id="wc8MHf9N2YYuKddE2Fxc-6" value="Sikertelen keresés" style="html=1;verticalAlign=bottom;endArrow=open;dashed=1;endSize=8;rounded=0;" parent="wc8MHf9N2YYuKddE2Fxc-1" edge="1">
          <mxGeometry x="-0.0122" y="10" relative="1" as="geometry">
            <mxPoint x="-119" y="270" as="targetPoint" />
            <mxPoint x="45" y="269.9999999999998" as="sourcePoint" />
            <Array as="points">
              <mxPoint x="-106" y="270" />
            </Array>
            <mxPoint as="offset" />
          </mxGeometry>
        </mxCell>
        <mxCell id="v-LXQGswzC1OJa_wjFEn-15" value="" style="html=1;points=[];perimeter=orthogonalPerimeter;" parent="wc8MHf9N2YYuKddE2Fxc-1" vertex="1">
          <mxGeometry x="50" y="150" width="10" height="20" as="geometry" />
        </mxCell>
        <mxCell id="v-LXQGswzC1OJa_wjFEn-16" value="Eredmény" style="edgeStyle=orthogonalEdgeStyle;html=1;align=left;spacingLeft=2;endArrow=open;rounded=0;entryX=1;entryY=0.192;entryDx=0;entryDy=0;entryPerimeter=0;dashed=1;endFill=0;" parent="wc8MHf9N2YYuKddE2Fxc-1" edge="1">
          <mxGeometry relative="1" as="geometry">
            <mxPoint x="55" y="372" as="sourcePoint" />
            <Array as="points">
              <mxPoint x="85" y="372" />
              <mxPoint x="85" y="392" />
            </Array>
            <mxPoint x="55" y="392.0400000000002" as="targetPoint" />
          </mxGeometry>
        </mxCell>
        <mxCell id="v-LXQGswzC1OJa_wjFEn-9" value="Szerepkör lekérdezése" style="html=1;verticalAlign=bottom;endArrow=block;rounded=0;" parent="1" target="v-LXQGswzC1OJa_wjFEn-1" edge="1">
          <mxGeometry x="0.054" y="-10" relative="1" as="geometry">
            <mxPoint x="290" y="60" as="sourcePoint" />
            <mxPoint as="offset" />
            <mxPoint x="455" y="60.00000000000068" as="targetPoint" />
          </mxGeometry>
        </mxCell>
        <mxCell id="v-LXQGswzC1OJa_wjFEn-11" value="Megjegyzések lekérdezése" style="html=1;verticalAlign=bottom;endArrow=block;rounded=0;entryX=0.5;entryY=0;entryDx=0;entryDy=0;entryPerimeter=0;" parent="1" edge="1">
          <mxGeometry x="-0.0695" y="-10" relative="1" as="geometry">
            <mxPoint x="293" y="284" as="sourcePoint" />
            <mxPoint as="offset" />
            <mxPoint x="480" y="284" as="targetPoint" />
          </mxGeometry>
        </mxCell>
        <mxCell id="3211l-Er1AWYU2jjhMqr-2" value="" style="line;strokeWidth=1;fillColor=none;align=left;verticalAlign=middle;spacingTop=-1;spacingLeft=3;spacingRight=3;rotatable=0;labelPosition=right;points=[];portConstraint=eastwest;dashed=1;" parent="1" vertex="1">
          <mxGeometry x="140" y="270" width="540" height="8" as="geometry" />
        </mxCell>
        <mxCell id="3211l-Er1AWYU2jjhMqr-5" value="CAFF eredmény nem létezik" style="text;html=1;strokeColor=none;fillColor=none;align=center;verticalAlign=middle;whiteSpace=wrap;rounded=0;dashed=1;" parent="1" vertex="1">
          <mxGeometry x="140" y="220" width="140" height="30" as="geometry" />
        </mxCell>
        <mxCell id="v-LXQGswzC1OJa_wjFEn-12" style="edgeStyle=orthogonalEdgeStyle;rounded=0;orthogonalLoop=1;jettySize=auto;html=1;dashed=1;" parent="1" edge="1">
          <mxGeometry relative="1" as="geometry">
            <mxPoint x="290" y="314" as="targetPoint" />
            <mxPoint x="479" y="314" as="sourcePoint" />
            <Array as="points">
              <mxPoint x="290" y="314" />
            </Array>
          </mxGeometry>
        </mxCell>
        <mxCell id="v-LXQGswzC1OJa_wjFEn-13" value="Megjegyzések" style="edgeLabel;html=1;align=center;verticalAlign=middle;resizable=0;points=[];" parent="v-LXQGswzC1OJa_wjFEn-12" vertex="1" connectable="0">
          <mxGeometry x="-0.1036" y="1" relative="1" as="geometry">
            <mxPoint as="offset" />
          </mxGeometry>
        </mxCell>
        <mxCell id="3211l-Er1AWYU2jjhMqr-7" value="Eredmény" style="html=1;verticalAlign=bottom;endArrow=open;dashed=1;endSize=8;rounded=0;" parent="1" edge="1">
          <mxGeometry x="-0.0122" y="10" relative="1" as="geometry">
            <mxPoint x="116" y="390" as="targetPoint" />
            <mxPoint x="280" y="389.9999999999998" as="sourcePoint" />
            <Array as="points">
              <mxPoint x="129" y="390" />
            </Array>
            <mxPoint as="offset" />
          </mxGeometry>
        </mxCell>
        <mxCell id="3211l-Er1AWYU2jjhMqr-8" value="CAFF eredmény létezik" style="text;html=1;strokeColor=none;fillColor=none;align=center;verticalAlign=middle;whiteSpace=wrap;rounded=0;dashed=1;" parent="1" vertex="1">
          <mxGeometry x="140" y="278" width="140" height="30" as="geometry" />
        </mxCell>
      </root>
    </mxGraphModel>
  </diagram>
</mxfile>
